<?xml version="1.0" encoding="utf-8"?>
<!-- Generator: Adobe Illustrator 18.1.1, SVG Export Plug-In . SVG Version: 6.00 Build 0)  -->
<svg version="1.1" xmlns="http://www.w3.org/2000/svg" xmlns:xlink="http://www.w3.org/1999/xlink" x="0px" y="0px"
	 viewBox="0 0 500 500" enable-background="new 0 0 500 500" xml:space="preserve">
<g id="BACKGROUND">
	<g>
		<rect fill="#F9FBFC" width="500" height="500"/>
		<path fill="#DAE8EF" d="M465.7,304.6l-15.8,110.7H49l-11.8-84.5c-1.3-9.5,3.9-18.6,12.7-22.3l35.6-14.8v-35.4
			c0-10.4,7.6-19.3,17.9-20.8l8.4-1.2l14.1-47.8c2.6-8.9,10.8-15,20.1-15h144.6c5.5,0,10.5,2.1,14.3,5.6c3.8,3.5,6.2,8.4,6.6,13.9
			l68.8,7.3c10.2,1.1,18.1,9.4,18.8,19.6l2.8,47.8l48.6,13.7C460.7,284.3,467.2,294.2,465.7,304.6z"/>
		<path fill="#CCD9E2" d="M73,327.4l12.5,87.9h318.2l9.4-67c1-7.5-3.1-14.8-10.1-17.7l-28.2-11.7v-28.1c0-8.3-6.1-15.3-14.2-16.5
			l-6.7-1l-11.2-37.9c-2.1-7.1-8.6-11.9-16-11.9H212c-4.4,0-8.4,1.7-11.3,4.5c-3,2.8-4.9,6.6-5.3,11l-54.6,5.8
			c-8.1,0.9-14.4,7.5-14.9,15.6l-2.2,37.9L85,309C77,311.3,71.9,319.2,73,327.4z"/>
		<path fill="#BCCED8" d="M335.6,382.5c0-9.5-6.9-17.5-16.3-18.9l-7.6-1.1l-12.8-43.4c-2.4-8.1-9.8-13.7-18.3-13.7H149.2
			c-5,0-9.6,1.9-13,5.1c-3.4,3.2-5.7,7.6-6,12.6l-56.9,6l12.3,86.1H337l-1.4-0.6V382.5z"/>
	</g>
</g>
<g id="OBJECTS">
	<g>
		<g>
			<g>
				<g>
					<rect x="120.2" y="99.1" fill="#112B46" width="97.6" height="91.1"/>
				</g>
				<g>
					<rect x="120.2" y="99.1" fill="#1D262D" width="97.6" height="9.6"/>
				</g>
				<g>
					<g>
						<circle fill="#606BF1" cx="194.9" cy="104" r="1.8"/>
					</g>
					<g>
						<circle fill="#FBD15B" cx="202.3" cy="104" r="1.8"/>
					</g>
					<g>
						<circle fill="#FF8578" cx="209.1" cy="104.2" r="1.8"/>
					</g>
				</g>
				<g>
					<g>
						<g>
							<rect x="137.6" y="117.7" fill="#FF8578" width="13.8" height="1.2"/>
						</g>
						<g>
							<rect x="153.8" y="117.7" fill="#FBD15B" width="13.8" height="1.2"/>
						</g>
						<g>
							<rect x="141.9" y="124" fill="#606BF1" width="21.4" height="1.2"/>
						</g>
						<g>
							<rect x="166.8" y="124" fill="#FF8578" width="10.9" height="1.2"/>
						</g>
						<g>
							<rect x="149.3" y="130.2" fill="#FBD15B" width="9.4" height="1.2"/>
						</g>
						<g>
							<rect x="164.1" y="130.2" fill="#FBD15B" width="31.2" height="1.2"/>
						</g>
						<g>
							<rect x="156.6" y="136.5" fill="#606BF1" width="35.7" height="1.2"/>
						</g>
						<g>
							<rect x="147.7" y="142.7" fill="#FF8578" width="11" height="1.2"/>
						</g>
						<g>
							<rect x="163.4" y="142.7" fill="#606BF1" width="11" height="1.2"/>
						</g>
					</g>
					<g>
						<g>
							<rect x="137.6" y="175.2" fill="#FF8578" width="16" height="1.2"/>
						</g>
						<g>
							<rect x="159.1" y="175.2" fill="#FBD15B" width="16" height="1.2"/>
						</g>
						<g>
							<rect x="180.1" y="175.2" fill="#FF8578" width="16" height="1.2"/>
						</g>
						<g>
							<rect x="141.9" y="168.9" fill="#606BF1" width="31.2" height="1.2"/>
						</g>
						<g>
							<rect x="177.9" y="168.9" fill="#FF8578" width="31.2" height="1.2"/>
						</g>
						<g>
							<rect x="149.3" y="162.7" fill="#FF8578" width="31" height="1.2"/>
						</g>
						<g>
							<rect x="183" y="162.7" fill="#FBD15B" width="8.6" height="1.2"/>
						</g>
						<g>
							<rect x="147.3" y="156.4" fill="#FBD15B" width="11.7" height="1.2"/>
						</g>
						<g>
							<rect x="165.1" y="156.4" fill="#606BF1" width="11.7" height="1.2"/>
						</g>
						<g>
							<rect x="184.3" y="156.4" fill="#FF8578" width="11.7" height="1.2"/>
						</g>
						<g>
							<rect x="160.8" y="150.2" fill="#FBD15B" width="16.4" height="1.2"/>
						</g>
						<g>
							<rect x="138.3" y="150.2" fill="#606BF1" width="16.4" height="1.2"/>
						</g>
					</g>
				</g>
				<g>
					<g>
						<g>
							<rect x="128.5" y="116.6" fill="#F9FBFC" width="1.5" height="1.5"/>
						</g>
					</g>
					<g>
						<g>
							<path fill="#F9FBFC" d="M130,171.1h-1.5v-3h1.5V171.1z M130,163.5h-1.5v-3h1.5V163.5z M130,156h-1.5v-3h1.5V156z M130,148.4
								h-1.5v-3h1.5V148.4z M130,140.8h-1.5v-3h1.5V140.8z M130,133.2h-1.5v-3h1.5V133.2z M130,125.7h-1.5v-3h1.5V125.7z"/>
						</g>
					</g>
					<g>
						<g>
							<rect x="128.5" y="175.7" fill="#F9FBFC" width="1.5" height="1.5"/>
						</g>
					</g>
				</g>
			</g>
			<g>
				<g>
					<rect x="238.8" y="79.8" fill="#FF8578" width="80.3" height="49.5"/>
				</g>
				<g>
					<path fill="#F9FBFC" d="M270,99.7l-9.6,4.1l9.6,4l-1.3,2.9l-11.5-5.1V102l11.5-5.2L270,99.7z"/>
					<path fill="#F9FBFC" d="M284.1,90.3l-6.9,26.6l-3.3-0.8l7-26.6L284.1,90.3z"/>
					<path fill="#F9FBFC" d="M300.6,102v3.5l-11.5,5.1l-1.2-2.9l9.5-4l-9.5-4.1l1.2-2.8L300.6,102z"/>
				</g>
			</g>
			<g>
				<g>
					<rect x="316.3" y="175.7" fill="#606BF1" width="45.8" height="32.6"/>
				</g>
				<g>
					<path fill="#F1F2F2" d="M335.5,182.7c-1.5,0-2,0.4-2,1.5v4.9c0,1.9-0.8,2.5-2.1,2.9c1.3,0.4,2.1,0.9,2.1,2.8v4.9
						c0,1.1,0.5,1.5,2,1.5v2.1c-3.7,0-4.8-1.2-4.8-3.7v-4.6c0-1.3-0.4-1.8-1.6-1.8v-2.5c1.2,0,1.6-0.5,1.6-1.9v-4.6
						c0-2.5,1.1-3.7,4.8-3.7V182.7z"/>
					<path fill="#F1F2F2" d="M347.7,184.3v4.6c0,1.3,0.4,1.9,1.6,1.9v2.5c-1.2,0-1.6,0.5-1.6,1.8v4.6c0,2.5-1.1,3.7-4.8,3.7v-2.1
						c1.4,0,2-0.4,2-1.5v-4.9c0-1.9,0.8-2.5,2.1-2.8c-1.3-0.4-2.1-1-2.1-2.9v-4.9c0-1.1-0.5-1.5-2-1.5v-2.1
						C346.7,180.6,347.7,181.8,347.7,184.3z"/>
				</g>
			</g>
			<g>
				<g>
					<rect x="89.2" y="86.9" fill="#FBD15B" width="51.3" height="34.3"/>
				</g>
				<g>
					<g>
						<path fill="#F9FBFC" d="M106.2,96.7c-2.5,3.1-2.4,7.5,0.1,10.6c2.8,3.4,7.7,4,11.2,1.7l5.4,5.4c0.2,0.2,0.6,0.2,0.8,0l1.5-1.5
							c0.2-0.2,0.2-0.6,0-0.8l-5.4-5.4c2.2-3.3,1.8-7.7-1.1-10.6C115.2,92.5,109.4,92.7,106.2,96.7z M117,106.2
							c-2.3,2.3-6.1,2.3-8.4,0c-2.3-2.3-2.3-6.1,0-8.4c2.3-2.3,6.1-2.3,8.4,0C119.3,100.1,119.3,103.9,117,106.2z"/>
					</g>
				</g>
			</g>
			<g>
				<g>
					<radialGradient id="SVGID_1_" cx="277.5197" cy="192.3786" r="12.9255" gradientUnits="userSpaceOnUse">
						<stop  offset="0" style="stop-color:#FFC8AF"/>
						<stop  offset="1" style="stop-color:#FFBB9C"/>
					</radialGradient>
					<path fill="url(#SVGID_1_)" d="M289.8,192.9c-0.1,1.1-1.7,13-13.8,13c-12.8,0-10.6-12.7-10.6-12.7l0-0.1c1.2-0.3,2.6-0.4,4-0.2
						v-6l14.5-8.1h0.5v14C284.4,192.8,286.7,192.6,289.8,192.9z"/>
					<g>
						<g id="XMLID_43_">
							<g>
								
									<radialGradient id="SVGID_2_" cx="279.6045" cy="169.1875" r="20.3775" gradientTransform="matrix(0.9776 -0.2105 0.2105 0.9776 -38.9136 62.4417)" gradientUnits="userSpaceOnUse">
									<stop  offset="0" style="stop-color:#FFC8AF"/>
									<stop  offset="1" style="stop-color:#FFBB9C"/>
								</radialGradient>
								<path fill="url(#SVGID_2_)" d="M282.8,152.1c2.1,2.1,3.6,4.8,4.4,8.1c1.4,6.1,0.1,12.6-1.7,18.6c-0.3,1-0.7,2-1.3,2.9
									c-0.4,0.6-1,1.1-1.6,1.6c-2.6,2.2-5.2,4.5-7.7,6.7c-1.7,1.5-12.5,2.8-14.5,1.3c-7.9-5.6-9.4-22-7.8-30.4
									C255.1,147.1,272.9,142.1,282.8,152.1z"/>
							</g>
						</g>
						<path fill="#F7B094" d="M278.3,169.9c0.1-1.3,1.5-2.8,2.9-1.9c1.4,0.9,1.1,3.3,0.5,4.6c-0.5,1-2,2.1-3.1,1.2
							c-0.9-0.8,0.5-1.7,0.5-2.5c0-0.7-1.3-1.1-0.7-1.8"/>
						<path fill="#F7B094" d="M278.6,176.1c1.4,0.4,3.9-0.7,4.5-2.7c0.6-2,0.6-4.3,0.6-4.3s0.7,1.8,0.4,4.7
							c-0.4,2.9-1.4,5.7-3.7,5.7C278,179.6,278.6,176.1,278.6,176.1z"/>
						<path fill="#3D3D7A" d="M276.8,174c0,0-0.1,0-0.2,0c-0.9,0.1-1.2-1-1.4-1.6c-0.3-1.6-0.3-3.2-0.3-4.8c0-0.4,0-0.9-0.1-1.3
							c-0.5-1.1-1.8-1.9-2.2-3.1c-0.5-1.4,0.9-2.8,0.3-4.3c-0.8-2.3-3.8-2.8-5.9-2.8c-3.2,0-6.4,0.6-9.5,1.1
							c-3.4,0.5-7.6,1-10.6-1.1c-3.6-2.6-5.1-9.2-2.4-12.9c1.4-2,4.2-3,6.6-3.1c2.6-0.1,4.7,1.5,7.1,2.2c1.9,0.6,3.7-1.2,5.4-1.5
							c2.2-0.4,3.1,2,5.1,2c1.9,0.1,3.7-1.4,5.6-1.7c3.7-0.7,3.4,3,5.9,4.3c1.5,0.8,3.5,0.3,5,1.1c1.2,0.6,1.3,1.7,1.6,2.9
							c0.2,1,0.2,2.2,0.6,3.2c0.3,0.9,1,1.4,1.6,2.1c0.6,0.8,1,1.6,1.4,2.6c0.7,2.1,0.9,4.4,0.7,6.6c-0.3,3.7-1.5,7.3-2.7,10.8
							c-0.8,2.3-1.1,4.6-2.3,6.7c-0.3,0.6-1.8,2.2-2.3,1c-0.1-0.3-0.1-0.6-0.1-0.9c0.2-2.3,2.3-17.3-3.3-15.5
							c-1.2,0.4-2,1.4-2.4,2.5c-0.5,1.4-0.6,2.7-0.5,4.1c0,0.2,0,0.4,0,0.6C277.1,173.6,277.1,173.9,276.8,174z"/>
					</g>
				</g>
				<path fill="#F7B094" d="M269.3,191.6c6.4-1,10.7-6.1,10.7-6.1s-1.7,8.6-11.1,9L269.3,191.6z"/>
				<g>
					<path fill="#0A2033" d="M279.9,308.6h9.2v88.5c0,0.9-0.7,1.6-1.6,1.6h-6c-0.9,0-1.6-0.7-1.6-1.6V308.6z"/>
					<path fill="#30475E" d="M259.2,309.8h50.7v1.4c0,3.5-2.8,6.3-6.3,6.3h-38.1c-3.5,0-6.3-2.8-6.3-6.3V309.8z"/>
					<g>
						<path fill="#0A2033" d="M279.9,388.2h9.2v20.5c0,0.9-0.7,1.6-1.6,1.6h-6c-0.9,0-1.6-0.7-1.6-1.6V388.2z"/>
						<circle fill="#0A2033" cx="242.1" cy="405" r="5.4"/>
						<circle fill="#0A2033" cx="327" cy="405" r="5.4"/>
						<rect x="275.3" y="381.3" fill="#30475E" width="18.6" height="16.2"/>
						<path fill="#FBD15B" d="M236.7,401.4h95.8v-1.9c0-3.2-2.6-5.8-5.8-5.8h-84.3c-3.2,0-5.8,2.6-5.8,5.8V401.4z"/>
					</g>
					<rect x="281.3" y="319.4" fill="#30475E" width="3.2" height="60.5"/>
				</g>
				<path fill="#FBD15B" d="M320.8,244.4c-2.2-0.1-4,1.8-3.9,4c0.6,11-1.7,37.8-11.9,46.9c-12.5,11.2-48,9.7-48,9.7
					s-5.9,7.2,5.9,8.8c11.7,1.6,44.7,0.5,52.7-6.9c7.7-7.2,12.3-26.1,8.9-59C324.2,245.9,322.7,244.5,320.8,244.4L320.8,244.4z"/>
				<g id="XMLID_42_">
					<g>
						<radialGradient id="SVGID_3_" cx="249.9626" cy="387.5479" r="8.1259" gradientUnits="userSpaceOnUse">
							<stop  offset="0" style="stop-color:#FFC8AF"/>
							<stop  offset="1" style="stop-color:#FFBB9C"/>
						</radialGradient>
						<polygon fill="url(#SVGID_3_)" points="254.3,379.9 258.5,389.5 245.6,395.2 241.4,385.5 						"/>
						<path fill="#56548C" d="M315.3,273c-0.8,1.6-58.2,0-63.7,0.5c0,0-35.1,16.8-40.2,32.5c-0.5,1.6-0.7,3.7-0.5,6.2
							c1.4,22.1,26.6,75.1,26.6,75.1l3.9-1.7l12.9-5.6l1.8-0.8c0,0-20-59.5-16-62.7c4-3.2,49.3-11.2,65-15.4
							C320.9,296.7,315.3,273,315.3,273z"/>
						<radialGradient id="SVGID_4_" cx="198.4986" cy="389.5859" r="7.4015" gradientUnits="userSpaceOnUse">
							<stop  offset="0" style="stop-color:#FFC8AF"/>
							<stop  offset="1" style="stop-color:#FFBB9C"/>
						</radialGradient>
						<polygon fill="url(#SVGID_4_)" points="205,382.4 206.1,396.8 191.9,396.8 190.9,382.3 						"/>
						<path fill="#3D3D7A" d="M251.3,273l-0.5,0.2c0,0-58.8,8.3-68.4,24.8c-6.2,10.7,5.8,89.2,5.8,89.2l20.8,0c0,0-3.1-65.4-2.1-69
							c1.2-4.2,3.2-5.7,4-6.1c-0.2-2.5,0-4.6,0.5-6.2c5-15.7,40.2-32.5,40.2-32.5C251.5,273.4,251.4,273.3,251.3,273z"/>
						<path fill="#FF8578" d="M308.2,218.7l-3.9,0.5c0,0-1,10.6-3.3,21.3l-49.2,18.7l-0.7,3.6c-0.2,0-0.4,0-0.6,0c0,0.7,0,1.5,0,2.1
							c0.1,4.1,0.4,7.1,0.8,8.2c0.1,0.2,0.2,0.4,0.3,0.5c1.3,1.1,18.7-1,37.5,5.9c16.3,6,25.4,12.5,25.9,11.6
							C320.1,280.4,310.8,238.6,308.2,218.7z"/>
						<path fill="#F4675D" d="M303,243c-1.3,6.3-4.7,18.8-11.3,20.5c-8.7,2.2-25.5,2.1-41.2,1.2c0-0.7,0-1.4,0-2.1
							c0.2,0,0.4,0,0.6,0l0.7-3.6l49.2-18.7c2.3-10.6,3.3-21.3,3.3-21.3s0,0.1,0,0.2C304.3,221,305,233.7,303,243z"/>
						<path fill="#F4675D" d="M253.8,203c-0.9,1.6-2.1,18.7-2.8,35.7l-10-9.4C245.2,221,253.8,203,253.8,203z"/>
						<path fill="#F7B094" d="M247.7,251c-8.5,1.5-16.3,2.7-16.3,2.7l0,0.4c-9.4-7.5-23.8-28.9-23.8-28.9s4.3-5.2,5.4-6.5
							c0.2-0.2,23.6,15.9,24.8,15.8c0.3,0,1.5-2.1,3.1-5.3l10,9.4c-0.2,4-0.3,8.1-0.4,11.9C249.6,250.7,248.7,250.8,247.7,251z"/>
						<radialGradient id="SVGID_5_" cx="243.5606" cy="250.6974" r="41.4442" gradientUnits="userSpaceOnUse">
							<stop  offset="0" style="stop-color:#FFC8AF"/>
							<stop  offset="1" style="stop-color:#FFBB9C"/>
						</radialGradient>
						<path fill="url(#SVGID_5_)" d="M231.5,253.7l-0.2,7h-25.6c0,0,2.5-10,9.5-10c6.9,0,9.6,3.7,9.6,3.7L231.5,253.7z"/>
						<path fill="#F7B094" d="M212.8,218.6l0.2,0.2c-1.1,1.4-5.4,6.5-5.4,6.5l-2.7-1.9c0,0-2.9,1.8-6.4-0.1
							c-3.6-1.9-1.4-6.5-1.2-7.1c-0.7,0.2-5,3.6-5.6,3.3c-0.7-0.4-1.2-1.6,3.6-6.3c4.8-4.7,11.2,1.3,11.4,1.3L212.8,218.6z"/>
						<path fill="#F7B094" d="M199.2,222.5c0,0-1,1.9,0.8,2.8c1.8,0.8,5.4,1.4,6.9,1.3c1.5-0.1,2.7-2.3,2.7-2.3l-4.6-4.3h-3.7
							L199.2,222.5z"/>
						<path fill="#E8987C" d="M198.9,223.4c0.3-0.9,2.9-0.4,4.5-0.4c1.2,0,1.9-0.3,2.2-1.2c0.4-0.9-1.4-2.4-1.7-1.9
							c-0.3,0.5,0.6,1.1,0.7,1.7c0,0.6-1.7,0.8-3.1,0.8c-1.3,0-3.7,0.4-3.7,0.4L198.9,223.4z"/>
					</g>
				</g>
				<radialGradient id="SVGID_6_" cx="243.5606" cy="250.6974" r="41.444" gradientUnits="userSpaceOnUse">
					<stop  offset="0" style="stop-color:#FFC8AF"/>
					<stop  offset="1" style="stop-color:#FFBB9C"/>
				</radialGradient>
				<path fill="url(#SVGID_6_)" d="M298.4,249.6l-25-8.9c-1.8,3.4-3.8,6-5.7,6.5c-2.9,0.8-10,2.1-17.1,3.3c-0.9,0.2-1.9,0.3-2.8,0.5
					c-8.5,1.5-16.3,2.7-16.3,2.7l0,0.4v0.3l-0.2,6.3v1.6c0,0,8.5-0.4,19.2,0.3c15,1.1,34.4,1.7,40.8-1.3
					C294.2,259.9,296.6,255.3,298.4,249.6C298.5,249.5,298.5,249.5,298.4,249.6z"/>
				<polygon fill="#F7B094" points="273.4,240.7 298.4,249.6 297.3,252.9 272.5,242.3 				"/>
				<path fill="#FF8578" d="M273.4,240.7c-1.8,3.4-3.8,6-5.7,6.5c-2.9,0.8-10,2.1-17.1,3.3c0.1-3.8,0.2-7.8,0.4-11.9
					c0.7-17,1.9-34.1,2.8-35.7c1.4-2.7,5.4-8.5,11.6-9.8l0,0.1c0,0-2.1,12.7,10.6,12.7c12.2,0,13.7-11.8,13.8-13
					c6.3,0.7,15.9,3.8,17.2,16.4c0.3,2.5,0.7,5.7,1.2,9.3l-3.9,0.5c0,0-1.6,17.7-5.7,30.3c0,0-0.1,0-0.1,0L273.4,240.7z"/>
				<polygon fill="#6D4B35" points="273.1,238.4 283.1,214.2 275.8,239.4 				"/>
				<path fill="#FF8578" d="M289.8,192.9h-5.4c0,0-7.8,8.5-12.7,8.5s-2.3-8.5-2.3-8.5h-2.4c-7,0-12.9,5.2-13.7,12.2
					c-0.1,0.8-0.2,1.5-0.2,2.2c-0.5,5.2,20.3,8.9,20.3,8.9l10.7-0.6l6.5-12.7l1.3-5.2L289.8,192.9z"/>
				<g>
					<g>
						<g id="XMLID_39_">
							<g>
								<path fill="#F1F2F2" d="M224.1,406.3c0.5,2.6,2.3,4.5,4.9,4l34.7-6.5c0.9-0.2,1.5-1,1.3-1.9l-0.6-3.1
									C264.4,398.8,227.9,405.2,224.1,406.3L224.1,406.3z"/>
								<path fill="#3D3D7A" d="M234.4,397.5c0.4-0.3,0.7-0.6,1.1-0.9c0.7-0.6,1.4-1.2,2-1.8c0.3-0.3,0.7-0.6,1-0.9
									c0.6-0.6,1.2-1.1,1.8-1.6c0.4-0.3,0.7-0.7,1.1-1c0.6-0.5,1.1-1,1.4-1.3c0.3-0.3,0.7-0.3,1,0c1.4,1.2,6,3.9,14.4-1.2
									c0.4-0.2,0.9-0.1,1.1,0.3l5.1,9.7c0,0-36.5,6.4-40.3,7.4C225.3,405.5,230,401.4,234.4,397.5z"/>
							</g>
						</g>
					</g>
				</g>
				<g>
					<g>
						<g id="XMLID_44_">
							<g>
								<path fill="#F1F2F2" d="M169.4,405.9c0.1,2.6,1.6,4.8,4.2,4.7l35.3-0.9c0.9,0,1.6-0.8,1.6-1.7l-0.1-3.1
									C210.4,405,173.4,405.5,169.4,405.9L169.4,405.9z"/>
								<path fill="#3D3D7A" d="M181,398.9c0.4-0.3,0.8-0.5,1.2-0.8c0.8-0.5,1.6-1,2.3-1.5c0.4-0.3,0.8-0.5,1.2-0.7
									c0.7-0.5,1.4-0.9,2-1.3c0.4-0.3,0.8-0.5,1.2-0.8c0.7-0.4,1.2-0.8,1.6-1c0.3-0.2,0.8-0.2,1,0.1c1.2,1.4,5.3,4.9,14.4,1.1
									c0.4-0.2,0.9,0,1.1,0.5l3.4,10.4c0,0-37,0.5-41,0.9C170.8,405.3,176,402.1,181,398.9z"/>
							</g>
						</g>
					</g>
				</g>
				<g>
					<polygon fill="#ABB5BA" points="144.3,262.3 125.5,212.1 179.1,212.1 198,262.3 					"/>
					<polygon fill="#8495A0" points="201.3,262.3 198,262.3 179.1,212.1 182.1,212.2 199.6,257.7 					"/>
					<polyline fill="none" points="128.4,256.9 128.6,256.9 195.9,256.9 					"/>
					<g>
						<path fill="#8495A0" d="M200.3,262.3h35.5l-0.1-3.2c0,0-35.5,0-36.1,0"/>
					</g>
				</g>
				<g>
					<g>
						<rect x="342.8" y="271.9" fill="#8495A0" width="8.5" height="140.2"/>
					</g>
					<g>
						<rect x="296.4" y="271.9" fill="#ABB5BA" width="8.5" height="140.2"/>
					</g>
					<g>
						<rect x="148" y="271.9" fill="#8495A0" width="8.5" height="140.2"/>
					</g>
					<g>
						<rect x="101.7" y="271.9" fill="#ABB5BA" width="8.5" height="140.2"/>
					</g>
					<path fill="#141B56" d="M359.8,272.5H93.5c-2.3,0-4.1-1.9-4.1-4.1v-1.8c0-2.3,1.9-4.1,4.1-4.1h266.4c2.3,0,4.1,1.9,4.1,4.1v1.8
						C364,270.6,362.1,272.5,359.8,272.5z"/>
				</g>
				<polygon fill="#8495A0" points="134.4,217.4 135.4,219.8 146,219.8 145.1,217.4 				"/>
				<polygon fill="#E8987C" points="240.9,229.2 240.1,230.7 250.9,241.9 250.9,238.6 				"/>
			</g>
		</g>
		<g>
			<rect x="29.7" y="410.4" fill="#A5B7C6" width="431.9" height="9.9"/>
			<g>
				<g>
					
						<linearGradient id="SVGID_7_" gradientUnits="userSpaceOnUse" x1="489.9151" y1="93.5885" x2="450.5752" y2="143.1809" gradientTransform="matrix(0.7834 -0.6215 0.6215 0.7834 -58.0954 529.938)">
						<stop  offset="0" style="stop-color:#606BF1"/>
						<stop  offset="1" style="stop-color:#58479F"/>
					</linearGradient>
					<path fill="url(#SVGID_7_)" d="M393.2,337.2c-1.7,8.3-1.2,22.5-12.2,24.8c-3,0.6-5.8-1.5-7.6-3.8c-2.3-3.1-2.8-9.6-2.8-13.3
						c0-3,1-6.3,1.4-9.2c0.4-3.2,0.6-6.5,1-9.7c1.4-11.6,7.4-21.3,17.7-27.1c0.8,3.8,2.6,7,4.2,10.7c0.7,1.7,1.4,3.4,1.9,5.2
						c0.8,3.1-0.2,6.2-0.9,9.2C394.7,328.2,394.1,332.8,393.2,337.2z"/>
					<path fill="#747DED" d="M379.1,362.2c0.1-0.7,0.2-1.4,0.3-2.1c1.3,0,2.7-0.8,3.8-1.3c1.9-1,3.5-2.4,5-3.9
						c0.1-0.1-0.1-0.2-0.1-0.1c-1.5,1.3-3.1,2.5-4.8,3.3c-1,0.5-2.5,1.2-3.7,1.4c0.1-0.8,0.2-1.7,0.4-2.5c1.4-0.2,2.6-1.1,3.8-1.8
						c2-1.2,3.7-2.7,5.4-4.1c0,0,0,0,0,0c-2.7,2-5.7,4.7-9.1,5.3c0.2-1,0.4-2.1,0.6-3.1c0-0.1,0-0.1,0-0.2c3.9-1,6.6-4.1,9.6-6.6
						c0,0,0-0.1-0.1-0.1c-3,2.3-5.8,4.9-9.4,6.1c0.3-1.5,0.6-2.9,1-4.4c3.6-1.3,6.4-3.4,8.9-6.3c0,0,0-0.1-0.1-0.1
						c-2.6,2.7-5.4,4.2-8.7,5.7c0.3-1.5,0.7-2.9,1-4.4c1.5-0.8,3.2-1.2,4.6-2.2c1.4-1,2.7-2.2,3.6-3.6c0-0.1-0.1-0.1-0.1-0.1
						c-2,2.9-5,3.8-7.9,5.3c0.3-1.4,0.5-2.7,0.8-4.1c3.2-1.8,6.8-3.4,8.6-6.8c0,0,0-0.1-0.1,0c-1.9,3.1-5.3,4.5-8.4,6.2
						c0-0.2,0.1-0.5,0.1-0.7c0.2-1.3,0.4-2.5,0.6-3.8c1.9-0.7,3.6-1.8,5.3-2.9c1.2-0.8,2.5-1.5,3.2-2.8c0-0.1-0.1-0.2-0.1-0.1
						c-1.7,2.5-5.5,3.9-8.3,5.2c0.2-1.3,0.4-2.6,0.5-3.9c3.1-1.9,6.8-2.9,8.7-6.3c0.1-0.1-0.1-0.2-0.2-0.1c-2,3.1-5.5,4.1-8.5,5.8
						c0.1-0.8,0.2-1.6,0.4-2.4c3.4-1.2,7.3-4.1,9.1-7.1c0.1-0.2-0.1-0.3-0.3-0.2c-1.8,2.7-5.4,5.6-8.7,6.6c0.2-1.3,0.4-2.6,0.6-3.9
						c0,0,0-0.1,0.1-0.1c1.5-0.4,3-1.5,4.3-2.3c1.6-1,3.1-2.1,4.1-3.7c0.1-0.2-0.2-0.3-0.3-0.2c-1.5,2.7-5,4.5-8,5.5
						c0.1-0.5,0.2-0.9,0.3-1.4c0.1-0.7,0.3-1.4,0.4-2.1c1.2-0.8,2.7-1.2,3.9-2.1c1-0.8,2-1.7,2.9-2.6c0.1-0.1,0-0.2-0.1-0.1
						c-1.2,1.1-2.5,2.2-4,3c-0.8,0.4-1.8,0.7-2.6,1.2c0.2-1.1,0.5-2.3,0.7-3.4c0,0,0,0,0,0c0,0,0,0,0,0c0.1,0,0.1,0,0.2-0.1
						c1.6-0.4,2.9-1.8,4-3c0,0,0-0.1,0,0c-1.2,1.1-2.5,2.2-4,2.7c0,0,0,0,0,0c0,0-0.1,0-0.1,0c0.2-0.9,0.3-1.9,0.5-2.8
						c0.1,0,0.2-0.1,0.2-0.2c0.9-0.6,1.7-1.3,2.4-2c0.1-0.1,0-0.1-0.1-0.1c-0.8,0.7-1.5,1.2-2.4,1.7c0.3-1.9,0.5-3.9,0.7-5.8
						c0-0.2-0.3-0.2-0.3,0c-0.2,1.9-0.4,3.8-0.8,5.6c-0.9-1.2-1.9-2.4-2.5-3.8c0-0.1-0.1,0-0.1,0c0.3,0.8,0.7,1.6,1.2,2.3
						c0.4,0.7,0.7,1.4,1.3,2c-0.2,1-0.4,2-0.6,3c-1.1-0.2-2.1-0.4-3-1.2c-1.1-1-1.7-2.3-1.8-3.8c0-0.2-0.3-0.2-0.3,0
						c0.1,1.4,0.7,2.6,1.6,3.7c1,1.1,2.1,1.4,3.5,1.7c-0.2,1.1-0.5,2.3-0.7,3.4c-1-0.6-1.9-1.4-2.8-2.1c-1.4-1.2-2.3-2.5-3.6-3.8
						c-0.1-0.1-0.3,0.1-0.2,0.2c1.2,1.3,2,2.6,3.3,3.7c1,0.8,2,1.8,3.2,2.4c0,0.1,0,0.1,0,0.2c0,0,0,0,0,0c-0.1,0.1-0.1,0.2,0,0.3
						c-0.2,1.1-0.5,2.2-0.7,3.3c0,0.1,0,0.1,0,0.2c-2.6-1.2-6.4-3.2-6.7-6.2c0-0.3-0.5-0.2-0.4,0.1c0.8,3.4,4.5,4.9,7,6.7
						c-0.3,1.2-0.5,2.5-0.7,3.7c-1.7-0.6-3.2-1.3-4.6-2.4c-1.3-1-3.1-2.2-3.6-3.8c0,0-0.1,0-0.1,0c0.5,1.5,2.1,2.6,3.3,3.7
						c1.5,1.3,3,2.5,4.9,3c0,0.1,0,0.1,0,0.2c-0.1,0.8-0.3,1.6-0.4,2.4c-3.1-0.2-7.5-2.6-9.1-5c0,0,0,0,0,0c1.1,1.8,2.7,2.8,4.6,3.8
						c1.4,0.7,2.9,1.5,4.4,1.6c-0.2,1.5-0.4,2.9-0.7,4.4c-1.3-0.5-2.8-0.7-4.1-1.3c-2-0.8-3.5-2.2-4.7-4c-0.1-0.1-0.2,0-0.2,0.1
						c2.2,3.4,5.3,4.4,8.9,5.7c-0.2,1.2-0.4,2.4-0.6,3.6c-3-0.6-6.8-2.4-8.3-5c-0.1-0.2-0.4,0-0.3,0.2c1,1.7,2.6,2.7,4.3,3.5
						c1.2,0.6,2.9,1.6,4.3,1.7c0,0,0,0.1,0,0.1c-0.3,1.7-0.6,3.5-1,5.2c-3.3-0.8-5.5-3.3-7.9-5.6c-0.2-0.2-0.4,0.1-0.3,0.2
						c2.5,2.4,4.6,5,8,5.8c-0.3,1.4-0.6,2.8-1,4.2c-2.8-0.8-5.6-2.8-7.5-5.1c-0.1-0.2-0.4,0.1-0.2,0.2c1.9,2.5,4.6,4.4,7.6,5.4
						c-0.4,1.5-0.7,3-1.1,4.5c-2.9-0.4-5.1-2.3-6.9-4.6c0-0.1-0.1,0-0.1,0.1c1.6,2.2,4,4.8,6.9,5c-0.1,0.5-0.2,1-0.4,1.4
						c-0.1,0.3-0.2,0.6-0.2,0.9c-2.2-0.6-4.2-1.4-6-2.9c-0.1,0-0.1,0-0.1,0.1c1.7,1.5,3.8,2.6,6,3.3c-0.2,0.9-0.5,1.8-0.8,2.8
						c-0.5-0.3-1.1-0.5-1.7-0.7c-1.1-0.3-1.8-1-2.7-1.6c-0.1-0.1-0.2,0.1-0.1,0.1c0.8,0.5,1.4,1.2,2.4,1.6c0.7,0.3,1.4,0.6,2,0.9
						c-1,3.7-1.9,7.7-1.4,11.2c0.1,0.8,1.4,1,1.6,0.2C378.8,367.7,378.8,364.9,379.1,362.2z"/>
				</g>
				<g>
					
						<linearGradient id="SVGID_8_" gradientUnits="userSpaceOnUse" x1="592.9305" y1="-19.9338" x2="553.5917" y2="29.6572" gradientTransform="matrix(0.4479 -0.8941 0.8941 0.4479 85.9095 842.98)">
						<stop  offset="0" style="stop-color:#606BF1"/>
						<stop  offset="1" style="stop-color:#58479F"/>
					</linearGradient>
					<path fill="url(#SVGID_8_)" d="M358.3,334.8c2,8.3,8.4,20.9-0.6,27.6c-2.4,1.8-5.9,1.1-8.5-0.3c-3.3-1.8-6.6-7.5-8.1-10.9
						c-1.2-2.7-1.7-6.1-2.7-9c-1-3.1-2.1-6.1-3.2-9.2c-3.7-11.1-2.3-22.5,4.6-32.1c2.3,3.1,5.3,5.3,8.3,7.9c1.4,1.2,2.7,2.5,3.9,3.9
						c2.1,2.5,2.5,5.7,3,8.7C355.9,326,357.3,330.4,358.3,334.8z"/>
					<path fill="#747DED" d="M356.1,363.5c-0.2-0.7-0.4-1.3-0.7-2c1.2-0.6,2.1-1.8,2.9-2.8c1.3-1.7,2.1-3.7,2.8-5.7
						c0-0.1-0.1-0.2-0.2-0.1c-0.8,1.8-1.7,3.5-3,5c-0.7,0.8-1.7,2.1-2.8,2.8c-0.2-0.8-0.5-1.6-0.7-2.4c1.2-0.7,1.9-2.1,2.7-3.2
						c1.3-1.9,2.2-4,3.2-6c0,0,0,0,0,0c-1.6,2.9-3.2,6.7-6,8.7c-0.3-1-0.5-2-0.8-3.1c0-0.1,0-0.1,0-0.2c3.1-2.6,4.3-6.5,5.9-10
						c0-0.1-0.1-0.1-0.1-0.1c-1.7,3.3-3.1,6.9-6,9.5c-0.3-1.5-0.7-2.9-1-4.4c2.7-2.7,4.4-5.8,5.4-9.5c0-0.1-0.1-0.1-0.1,0
						c-1.2,3.5-3.1,6.1-5.4,8.9c-0.3-1.5-0.6-2.9-1-4.4c1.1-1.3,2.4-2.4,3.2-3.9c0.9-1.5,1.5-3.1,1.7-4.8c0-0.1-0.1-0.1-0.1,0
						c-0.6,3.4-2.9,5.5-4.9,8.1c-0.3-1.4-0.7-2.7-1-4c2.2-3,4.7-6,4.9-9.8c0,0-0.1,0-0.1,0c-0.4,3.7-2.9,6.3-5,9.2
						c-0.1-0.2-0.1-0.5-0.2-0.7c-0.4-1.2-0.7-2.5-1.1-3.7c1.4-1.5,2.5-3.2,3.6-4.9c0.8-1.2,1.6-2.4,1.8-3.9c0-0.1-0.1-0.1-0.1,0
						c-0.5,3-3.4,5.9-5.4,8.2c-0.4-1.2-0.8-2.5-1.1-3.7c2-3,4.9-5.5,5.2-9.4c0-0.1-0.2-0.1-0.2,0c-0.5,3.7-3.3,6-5.2,8.8
						c-0.2-0.8-0.5-1.5-0.7-2.3c2.5-2.5,4.9-6.7,5.2-10.3c0-0.2-0.3-0.2-0.3,0c-0.5,3.2-2.6,7.3-5.1,9.7c-0.4-1.3-0.7-2.5-1.1-3.8
						c0,0,0-0.1,0-0.1c1.2-1,2.1-2.6,2.9-3.9c1-1.5,1.9-3.2,2.1-5.1c0-0.2-0.3-0.2-0.3,0c-0.2,3-2.7,6.2-4.9,8.3
						c-0.1-0.5-0.2-0.9-0.4-1.4c-0.2-0.7-0.3-1.4-0.5-2.1c0.7-1.3,2-2.3,2.7-3.6c0.6-1.1,1.1-2.4,1.5-3.6c0-0.1-0.1-0.2-0.2-0.1
						c-0.6,1.6-1.3,3.1-2.3,4.4c-0.6,0.8-1.3,1.4-1.8,2.2c-0.3-1.1-0.5-2.3-0.8-3.4c0,0,0,0,0,0c0,0,0,0,0,0c0.1,0,0.1-0.1,0.2-0.1
						c1.3-1.1,1.8-2.9,2.3-4.4c0,0,0-0.1-0.1,0c-0.6,1.5-1.3,3.1-2.5,4.1c0,0,0,0,0,0c0,0-0.1,0-0.1,0c-0.2-0.9-0.5-1.8-0.7-2.8
						c0.1-0.1,0.1-0.2,0.1-0.3c0.5-0.9,0.9-1.9,1.3-2.9c0-0.1-0.1-0.1-0.1,0c-0.4,0.9-0.9,1.7-1.5,2.5c-0.5-1.9-1.1-3.7-1.9-5.6
						c-0.1-0.2-0.3-0.1-0.3,0.1c0.6,1.8,1.2,3.6,1.7,5.4c-1.3-0.7-2.7-1.4-3.8-2.4c-0.1-0.1-0.1,0-0.1,0.1c0.6,0.6,1.3,1.1,2.1,1.6
						c0.7,0.4,1.3,1,2,1.3c0.3,1,0.5,2,0.7,3c-1.1,0.3-2.1,0.5-3.2,0.2c-1.4-0.4-2.5-1.3-3.3-2.6c-0.1-0.2-0.3,0-0.3,0.1
						c0.7,1.2,1.7,2.1,3,2.6c1.3,0.6,2.5,0.4,3.8,0.1c0.3,1.1,0.5,2.3,0.8,3.4c-1.2-0.1-2.3-0.4-3.4-0.7c-1.8-0.4-3.2-1.3-4.8-2
						c-0.2-0.1-0.3,0.2-0.1,0.3c1.6,0.6,2.9,1.5,4.6,2c1.2,0.3,2.6,0.8,3.9,0.9c0,0.1,0,0.1,0,0.2c0,0,0,0,0,0c0,0.1,0,0.2,0.1,0.2
						c0.2,1.1,0.5,2.2,0.7,3.3c0,0.1,0,0.1,0.1,0.2c-2.8,0-7.1-0.2-8.7-2.8c-0.1-0.2-0.5,0-0.3,0.2c2.1,2.7,6.1,2.5,9.2,3.1
						c0.3,1.2,0.6,2.5,1,3.7c-1.7,0.2-3.5,0.2-5.2-0.2c-1.6-0.4-3.7-0.7-4.9-1.9c0,0-0.1,0-0.1,0.1c1.1,1.2,3,1.5,4.5,1.9
						c1.9,0.6,3.8,1,5.7,0.7c0,0.1,0,0.1,0.1,0.2c0.2,0.8,0.4,1.5,0.7,2.3c-2.9,1.1-7.9,0.8-10.3-0.7c0,0,0,0,0,0
						c1.7,1.2,3.7,1.4,5.7,1.5c1.5,0,3.2,0.1,4.7-0.4c0.4,1.4,0.8,2.9,1.3,4.3c-1.4,0.1-2.8,0.5-4.3,0.6c-2.1,0.1-4.1-0.5-5.9-1.6
						c-0.1-0.1-0.2,0.1-0.1,0.2c3.4,2.2,6.6,1.8,10.5,1.4c0.3,1.2,0.7,2.3,1,3.5c-2.9,0.7-7.2,0.7-9.6-1c-0.2-0.1-0.4,0.1-0.2,0.3
						c1.6,1.1,3.5,1.4,5.4,1.4c1.3,0,3.3,0.3,4.6-0.3c0,0,0,0.1,0,0.1c0.5,1.7,0.9,3.4,1.3,5.1c-3.4,0.6-6.3-0.7-9.5-1.7
						c-0.2-0.1-0.4,0.3-0.1,0.3c3.2,1.2,6.3,2.5,9.7,1.9c0.3,1.4,0.6,2.8,0.9,4.2c-2.9,0.5-6.3-0.2-8.9-1.5
						c-0.2-0.1-0.3,0.2-0.1,0.3c2.8,1.5,6.1,2,9.1,1.7c0.3,1.5,0.6,3,0.9,4.5c-2.8,0.8-5.6,0.1-8.2-1.2c-0.1,0-0.1,0.1-0.1,0.1
						c2.4,1.3,5.6,2.6,8.4,1.7c0.1,0.5,0.2,1,0.3,1.4c0.1,0.3,0.1,0.6,0.2,0.9c-2.3,0.3-4.4,0.5-6.7-0.1c-0.1,0-0.1,0.1,0,0.1
						c2.2,0.7,4.5,0.8,6.8,0.4c0.2,0.9,0.3,1.9,0.5,2.8c-0.6,0-1.2,0-1.8,0.1c-1.1,0.2-2.1-0.2-3.2-0.3c-0.1,0-0.1,0.1,0,0.2
						c1,0.1,1.8,0.5,2.8,0.5c0.7-0.1,1.5,0,2.2,0c0.7,3.8,1.5,7.8,3.5,10.8c0.4,0.7,1.7,0.3,1.6-0.5
						C358.2,368.5,357,366,356.1,363.5z"/>
				</g>
				<g>
					
						<linearGradient id="SVGID_9_" gradientUnits="userSpaceOnUse" x1="552.5735" y1="16.139" x2="503.8899" y2="77.5101" gradientTransform="matrix(0.6073 -0.7945 0.7945 0.6073 6.1873 714.3383)">
						<stop  offset="0" style="stop-color:#606BF1"/>
						<stop  offset="1" style="stop-color:#58479F"/>
					</linearGradient>
					<path fill="url(#SVGID_9_)" d="M377.4,328.4c0.5,10.5,5.4,27.4-7.1,33.4c-3.4,1.6-7.4,0-10.2-2.3c-3.6-3-6.3-10.7-7.4-15.2
						c-0.9-3.6-0.6-7.8-1.2-11.5c-0.6-4-1.2-7.9-1.7-11.9c-1.9-14.3,2.4-27.9,13-37.9c2.1,4.3,5.3,7.7,8.3,11.6
						c1.4,1.8,2.7,3.7,3.8,5.6c1.9,3.5,1.7,7.5,1.7,11.3C376.5,317.2,377.2,322.8,377.4,328.4z"/>
					<path fill="#747DED" d="M368.1,362.7c-0.1-0.9-0.2-1.7-0.3-2.6c1.6-0.4,3-1.7,4.1-2.7c2-1.8,3.4-4,4.8-6.2
						c0.1-0.1-0.1-0.2-0.2-0.1c-1.4,2-2.9,3.9-4.8,5.4c-1.1,0.9-2.6,2.2-4,2.8c-0.1-1-0.2-2.1-0.3-3.1c1.6-0.6,2.8-2.1,4-3.3
						c2-2,3.6-4.3,5.3-6.6c0,0,0-0.1,0,0c-2.6,3.2-5.4,7.4-9.3,9.2c-0.1-1.3-0.2-2.6-0.2-3.9c0-0.1,0-0.1,0-0.2
						c4.4-2.4,6.7-6.9,9.5-10.8c0-0.1,0-0.1-0.1-0.1c-2.9,3.7-5.4,7.7-9.5,10.1c-0.1-1.9-0.1-3.7-0.2-5.6c3.9-2.7,6.7-6,8.8-10.3
						c0-0.1-0.1-0.1-0.1-0.1c-2.3,4-5.2,6.7-8.7,9.5c0-1.8-0.1-3.7-0.2-5.5c1.6-1.4,3.4-2.4,4.8-4c1.4-1.6,2.5-3.4,3.2-5.4
						c0-0.1-0.1-0.2-0.2-0.1c-1.5,4-4.9,6-7.9,8.7c-0.1-1.7-0.2-3.4-0.3-5.1c3.3-3.1,7.1-6.2,8.2-10.8c0,0-0.1-0.1-0.1,0
						c-1.4,4.4-5,7-8.2,10c0-0.3,0-0.6-0.1-0.9c-0.1-1.6-0.3-3.2-0.5-4.7c2-1.5,3.8-3.3,5.5-5.1c1.2-1.3,2.5-2.6,3-4.3
						c0-0.1-0.1-0.2-0.2-0.1c-1.3,3.5-5.5,6.4-8.4,8.7c-0.2-1.6-0.3-3.2-0.5-4.8c3.2-3.2,7.2-5.6,8.5-10.2c0-0.1-0.2-0.2-0.2-0.1
						c-1.4,4.3-5.3,6.5-8.4,9.5c-0.1-1-0.2-2-0.3-3c3.7-2.5,7.5-7.1,8.7-11.3c0.1-0.2-0.3-0.3-0.4-0.1c-1.4,3.8-4.8,8.3-8.4,10.6
						c-0.2-1.6-0.3-3.2-0.4-4.8c0,0,0-0.1,0-0.2c1.7-1,3.1-2.7,4.5-4.1c1.6-1.6,3.1-3.4,3.7-5.7c0.1-0.2-0.3-0.4-0.4-0.1
						c-1,3.7-4.7,6.9-7.9,9c0-0.6-0.1-1.2-0.1-1.8c0-0.9-0.1-1.8-0.1-2.6c1.2-1.4,2.9-2.3,4.1-3.7c1-1.2,1.8-2.6,2.6-4
						c0.1-0.1-0.1-0.3-0.2-0.1c-1.1,1.7-2.3,3.4-3.8,4.8c-0.9,0.8-1.9,1.4-2.7,2.2c-0.1-1.4-0.1-2.9-0.2-4.3c0,0,0,0,0,0
						c0,0,0,0,0.1,0c0.1,0,0.2-0.1,0.2-0.1c1.8-1,2.9-3.1,3.9-4.8c0,0,0-0.1-0.1,0c-1.1,1.6-2.3,3.4-4,4.5c0,0,0,0,0,0
						c0,0-0.1,0-0.1,0c-0.1-1.2-0.1-2.3-0.2-3.5c0.1-0.1,0.2-0.2,0.2-0.3c0.9-1,1.6-2.1,2.2-3.2c0-0.1-0.1-0.2-0.1-0.1
						c-0.7,1-1.5,1.9-2.4,2.7c-0.2-2.4-0.5-4.8-1-7.2c0-0.2-0.4-0.1-0.3,0.1c0.4,2.3,0.6,4.6,0.8,7c-1.4-1.1-3-2.3-4.1-3.8
						c-0.1-0.1-0.2,0-0.1,0.1c0.6,0.9,1.4,1.7,2.1,2.4c0.7,0.7,1.3,1.5,2.1,2.1c0.1,1.3,0.2,2.5,0.2,3.8c-1.4,0.1-2.6,0.2-4-0.5
						c-1.6-0.8-2.8-2.2-3.4-3.9c-0.1-0.2-0.4-0.1-0.3,0.1c0.6,1.6,1.6,3,3,3.9c1.5,1,3,1,4.7,1c0.1,1.5,0.1,2.9,0.2,4.4
						c-1.4-0.4-2.7-1.1-4-1.7c-2.1-0.9-3.5-2.4-5.4-3.5c-0.2-0.1-0.4,0.2-0.2,0.3c1.8,1.1,3.2,2.5,5.1,3.5c1.4,0.7,3,1.6,4.6,1.9
						c0,0.1,0,0.2,0,0.2c0,0,0,0,0,0.1c-0.1,0.1,0,0.2,0,0.3c0,1.4,0.1,2.8,0.1,4.2c0,0.1,0,0.2,0,0.3c-3.4-0.6-8.6-1.9-9.9-5.4
						c-0.1-0.3-0.6-0.1-0.4,0.2c1.9,3.8,6.8,4.5,10.4,5.9c0.1,1.6,0.2,3.1,0.3,4.7c-2.2-0.2-4.3-0.5-6.3-1.5
						c-1.8-0.8-4.3-1.7-5.5-3.4c0-0.1-0.1,0-0.1,0.1c1.1,1.7,3.3,2.5,5.1,3.4c2.2,1.2,4.3,2.1,6.8,2.1c0,0.1,0,0.1,0,0.2
						c0.1,1,0.2,2,0.3,3c-3.8,0.7-9.7-0.9-12.4-3.2c0,0,0,0,0,0c1.8,1.8,4.1,2.6,6.6,3.1c1.9,0.4,3.9,0.9,5.8,0.6
						c0.2,1.8,0.4,3.7,0.5,5.5c-1.8-0.2-3.6,0-5.3-0.3c-2.6-0.4-4.9-1.6-6.8-3.4c-0.1-0.1-0.3,0.1-0.2,0.2c3.6,3.5,7.6,3.7,12.4,4.2
						c0.1,1.5,0.3,3,0.4,4.5c-3.7,0.2-8.9-0.8-11.5-3.4c-0.2-0.2-0.5,0.1-0.3,0.3c1.6,1.7,3.9,2.5,6.2,3c1.6,0.4,3.9,1.1,5.7,0.8
						c0,0,0,0.1,0,0.1c0.2,2.2,0.3,4.3,0.4,6.5c-4.2,0-7.6-2.3-11.1-4.3c-0.2-0.1-0.5,0.2-0.2,0.4c3.7,2.2,7,4.5,11.4,4.6
						c0.1,1.8,0.1,3.5,0.1,5.3c-3.6-0.1-7.6-1.6-10.5-3.9c-0.2-0.2-0.4,0.2-0.2,0.3c3,2.4,6.9,3.9,10.7,4.2c0,1.9,0,3.8,0,5.7
						c-3.6,0.4-6.9-1.2-9.7-3.4c-0.1-0.1-0.2,0.1-0.1,0.1c2.6,2.2,6.2,4.5,9.8,3.9c0,0.6,0,1.2,0,1.8c0,0.4,0,0.7,0,1.1
						c-2.8-0.1-5.5-0.4-8.1-1.7c-0.1,0-0.1,0.1,0,0.1c2.5,1.3,5.3,2,8.2,2.1c0,1.1-0.1,2.3-0.1,3.5c-0.7-0.1-1.4-0.3-2.2-0.3
						c-1.4-0.1-2.5-0.7-3.8-1.1c-0.1,0-0.2,0.1-0.1,0.2c1.2,0.4,2.1,1.1,3.3,1.2c0.9,0.1,1.8,0.3,2.7,0.5c-0.1,4.8,0.1,9.8,1.7,13.9
						c0.4,0.9,2,0.8,2-0.3C369.4,369.3,368.6,366,368.1,362.7z"/>
				</g>
				<polygon fill="#95A8B5" points="384.3,366.7 383.9,375.2 383.1,388.5 382,410.4 352.4,410.4 351.2,388.5 350.4,375.2 350,366.7 
									"/>
				<polygon fill="#A5B7C6" points="383.9,375.2 383.8,376.9 383.7,378.7 383.1,388.5 351.2,388.5 350.6,378.7 350.5,376.9 
					350.4,375.2 				"/>
				<polygon fill="#95A8B5" points="383.8,376.9 383.7,378.7 350.6,378.7 350.5,376.9 				"/>
			</g>
		</g>
	</g>
</g>
<g id="Designed_By_Freepik">
	<g>
		<g id="XMLID_319_">
			<g id="XMLID_338_">
				<path id="XMLID_346_" fill="#A5B7C6" d="M260.1,467.9c-0.4,0.4-0.8,0.9-1.1,1.5l-0.5-0.2c-0.1-0.3-0.3-0.5-0.7-0.5
					c-0.3,0-0.6,0.3-0.5,0.7c0,0.3,0.3,0.6,0.7,0.5c0.1,0,0.1,0,0.2-0.1l0.5,0.2c-0.3,0.6-0.4,1.1-0.5,1.7l0.7,0.1
					c0.2-1.3,0.8-2.5,1.8-3.5L260.1,467.9z"/>
				<path id="XMLID_345_" fill="#A5B7C6" d="M265.6,465.6c-0.2,0-0.3,0-0.5,0L265,465c0.2-0.1,0.3-0.4,0.3-0.6
					c0-0.4-0.4-0.7-0.8-0.6c-0.4,0-0.7,0.4-0.6,0.8c0,0.3,0.2,0.5,0.4,0.6l0.1,0.6c-0.7,0.1-1.4,0.3-2.1,0.6l0.3,0.7
					c0.9-0.4,1.9-0.7,3-0.7c0.5,0,1,0.1,1.5,0.2l0.2-0.7C266.7,465.7,266.1,465.6,265.6,465.6z"/>
				<path id="XMLID_344_" fill="#A5B7C6" d="M272.2,468.2c0.3,0,0.6-0.3,0.5-0.7c0-0.3-0.3-0.6-0.7-0.5c-0.3,0-0.5,0.3-0.5,0.6
					l-0.4,0.4c-0.4-0.4-0.9-0.8-1.4-1.1l-0.4,0.6c1.1,0.7,2,1.7,2.6,2.9l0.7-0.3c-0.3-0.6-0.6-1.1-0.9-1.5l0.4-0.4
					C272.1,468.2,272.1,468.2,272.2,468.2z"/>
				<path id="XMLID_343_" fill="#A5B7C6" d="M265,475.9c-0.4,0-0.8,0-1.2,0c-0.9,0-1.7-0.1-2.5-0.2c-0.4-0.1-0.8-0.2-1.3-0.3
					c1,1.9,3.1,3.1,5.4,3.1c2.9,0,5.3-1.9,5.9-4.5c-0.7,0.4-1.5,0.8-2.5,1.1C267.8,475.5,266.5,475.8,265,475.9z"/>
				<path id="XMLID_339_" fill="#A5B7C6" d="M265.6,467.2c-3.4,0-6.1,2.7-6.1,5.9c0,0.4,0,0.8,0.1,1.3c0.7,0.5,2.7,0.9,5.3,0.7
					c2.9-0.2,5.3-1,6.7-2.2c0-0.2,0-0.4,0-0.6C271.2,469.4,268.7,467.2,265.6,467.2z M263.4,473.7c-1,0-1.8-0.8-1.8-1.8
					c0-1,0.8-1.8,1.8-1.8c1,0,1.8,0.8,1.8,1.8C265.3,472.8,264.5,473.7,263.4,473.7z M268.2,472.8c-0.8,0-1.4-0.6-1.4-1.4
					c0-0.8,0.6-1.4,1.4-1.4c0.8,0,1.4,0.6,1.4,1.4C269.5,472.2,268.9,472.8,268.2,472.8z"/>
			</g>
			<path id="XMLID_336_" fill="#A5B7C6" d="M281.6,469c-0.3-0.1-0.8-0.3-1.4-0.2c-0.6,0.1-0.8,0.3-0.8,1v0.9h2.2v1.7h-2.2v5.5h-1.9
				v-5.5h-1.3v-1.7h1.3v-0.9c0-1.7,0.9-2.8,2.6-2.8c0.6,0,1.2,0.1,1.6,0.3L281.6,469z"/>
			<path id="XMLID_334_" fill="#A5B7C6" d="M286.3,472.4c-0.2,0-0.4,0-0.5,0c-0.9,0-1.5,0.5-1.5,1.6v3.9h-1.9v-7.2h1.9v0.8
				c0.5-0.7,1.1-1,2-1c0.4,0,0.8,0.1,1.1,0.3L286.3,472.4z"/>
			<path id="XMLID_331_" fill="#A5B7C6" d="M294,474.2c0,0.2,0,0.5,0,0.7h-5.1c0.2,1,0.9,1.5,1.8,1.5c0.6,0,1.3-0.3,1.8-0.7l1.1,1.2
				c-0.8,0.7-1.9,1.1-3.1,1.1c-2.2,0-3.7-1.5-3.7-3.8c0-2.3,1.5-3.8,3.6-3.8C292.5,470.5,294,472,294,474.2z M288.9,473.6h3.2
				c-0.2-0.9-0.7-1.4-1.6-1.4C289.6,472.1,289,472.7,288.9,473.6z"/>
			<path id="XMLID_328_" fill="#A5B7C6" d="M301.6,474.2c0,0.2,0,0.5,0,0.7h-5.1c0.2,1,0.9,1.5,1.8,1.5c0.6,0,1.3-0.3,1.8-0.7
				l1.1,1.2c-0.8,0.7-1.9,1.1-3.1,1.1c-2.2,0-3.7-1.5-3.7-3.8c0-2.3,1.5-3.8,3.6-3.8C300.2,470.5,301.6,472,301.6,474.2z
				 M296.5,473.6h3.2c-0.2-0.9-0.7-1.4-1.6-1.4C297.2,472.1,296.7,472.7,296.5,473.6z"/>
			<path id="XMLID_325_" fill="#A5B7C6" d="M310,474.2c0,2.2-1.5,3.8-3.5,3.8c-1,0-1.6-0.4-2.1-0.9v3.7h-1.9v-10.1h1.9v0.8
				c0.5-0.6,1.2-1,2.1-1C308.5,470.5,310,472.1,310,474.2z M304.3,474.2c0,1.1,0.7,2,1.8,2c1.1,0,1.9-0.9,1.9-2c0-1.1-0.7-2-1.9-2
				C305,472.3,304.3,473.1,304.3,474.2z"/>
			<path id="XMLID_322_" fill="#A5B7C6" d="M313.1,468.3c0,0.7-0.5,1.2-1.2,1.2c-0.7,0-1.2-0.5-1.2-1.2c0-0.7,0.5-1.2,1.2-1.2
				C312.5,467.1,313.1,467.6,313.1,468.3z M312.8,477.8h-1.9v-7.2h1.9V477.8z"/>
			<path id="XMLID_320_" fill="#A5B7C6" d="M316,473.2l2.7-2.6h2.4l-3.5,3.4l3.5,3.8h-2.4l-2.7-2.9v2.9h-1.9v-10.7h1.9V473.2z"/>
		</g>
		<g>
			<path fill="#A5B7C6" d="M184.4,477.8v-1.1c-0.5,0.7-1.4,1.2-2.4,1.2c-1.8,0-3.1-1.4-3.1-3.7c0-2.3,1.3-3.7,3.1-3.7
				c1,0,1.8,0.5,2.4,1.2V468h1.1v9.8H184.4z M184.4,475.9v-3.2c-0.4-0.6-1.2-1.1-2.1-1.1c-1.4,0-2.3,1.2-2.3,2.7
				c0,1.6,0.8,2.7,2.3,2.7C183.2,477,184,476.5,184.4,475.9z"/>
			<path fill="#A5B7C6" d="M186.9,474.2c0-2.1,1.5-3.7,3.5-3.7c2.1,0,3.4,1.7,3.4,3.8v0.3h-5.7c0.1,1.3,1,2.4,2.5,2.4
				c0.8,0,1.6-0.3,2.2-0.9l0.5,0.7c-0.7,0.7-1.7,1.1-2.8,1.1C188.4,477.9,186.9,476.4,186.9,474.2z M190.4,471.4
				c-1.5,0-2.3,1.3-2.3,2.4h4.6C192.7,472.7,192,471.4,190.4,471.4z"/>
			<path fill="#A5B7C6" d="M194.6,476.8l0.6-0.8c0.5,0.5,1.4,1,2.3,1c1.1,0,1.7-0.5,1.7-1.2c0-1.7-4.4-0.7-4.4-3.3c0-1.1,1-2,2.6-2
				c1.2,0,2.1,0.5,2.6,1l-0.5,0.8c-0.4-0.5-1.2-0.9-2.1-0.9c-1,0-1.6,0.5-1.6,1.1c0,1.6,4.4,0.5,4.4,3.3c0,1.2-1,2.1-2.8,2.1
				C196.3,477.9,195.3,477.6,194.6,476.8z"/>
			<path fill="#A5B7C6" d="M201.5,469c0-0.4,0.3-0.7,0.7-0.7c0.4,0,0.7,0.3,0.7,0.7c0,0.4-0.3,0.7-0.7,0.7
				C201.8,469.7,201.5,469.4,201.5,469z M201.7,477.8v-7.1h1.1v7.1H201.7z"/>
			<path fill="#A5B7C6" d="M204.6,479.6l0.6-0.8c0.6,0.7,1.3,1,2.3,1c1.2,0,2.3-0.6,2.3-2.1v-1c-0.5,0.7-1.4,1.3-2.4,1.3
				c-1.8,0-3.1-1.4-3.1-3.7c0-2.3,1.3-3.7,3.1-3.7c1,0,1.8,0.5,2.4,1.2v-1.1h1.1v6.9c0,2.3-1.6,3.1-3.4,3.1
				C206.2,480.6,205.4,480.4,204.6,479.6z M209.7,475.7v-3.1c-0.4-0.6-1.2-1.1-2.1-1.1c-1.4,0-2.3,1.1-2.3,2.7
				c0,1.6,0.8,2.7,2.3,2.7C208.5,476.9,209.3,476.4,209.7,475.7z"/>
			<path fill="#A5B7C6" d="M217.4,477.8v-4.6c0-1.2-0.6-1.6-1.6-1.6c-0.9,0-1.7,0.5-2.1,1.1v5.2h-1.1v-7.1h1.1v1
				c0.5-0.6,1.5-1.2,2.5-1.2c1.5,0,2.3,0.7,2.3,2.3v5H217.4z"/>
			<path fill="#A5B7C6" d="M219.9,474.2c0-2.1,1.5-3.7,3.5-3.7c2.1,0,3.4,1.7,3.4,3.8v0.3h-5.7c0.1,1.3,1,2.4,2.5,2.4
				c0.8,0,1.6-0.3,2.2-0.9l0.5,0.7c-0.7,0.7-1.7,1.1-2.8,1.1C221.4,477.9,219.9,476.4,219.9,474.2z M223.4,471.4
				c-1.5,0-2.3,1.3-2.3,2.4h4.6C225.7,472.7,225,471.4,223.4,471.4z"/>
			<path fill="#A5B7C6" d="M233.4,477.8v-1.1c-0.5,0.7-1.4,1.2-2.4,1.2c-1.8,0-3.1-1.4-3.1-3.7c0-2.3,1.3-3.7,3.1-3.7
				c1,0,1.8,0.5,2.4,1.2V468h1.1v9.8H233.4z M233.4,475.9v-3.2c-0.4-0.6-1.2-1.1-2.1-1.1c-1.4,0-2.3,1.2-2.3,2.7
				c0,1.6,0.8,2.7,2.3,2.7C232.1,477,233,476.5,233.4,475.9z"/>
			<path fill="#A5B7C6" d="M239.7,477.8V468h1.1v3.8c0.6-0.8,1.4-1.2,2.4-1.2c1.8,0,3.1,1.5,3.1,3.7c0,2.3-1.3,3.7-3.1,3.7
				c-1,0-1.9-0.5-2.4-1.2v1.1H239.7z M242.9,477c1.4,0,2.3-1.2,2.3-2.7c0-1.6-0.8-2.7-2.3-2.7c-0.9,0-1.7,0.5-2.1,1.1v3.2
				C241.2,476.5,242,477,242.9,477z"/>
			<path fill="#A5B7C6" d="M247.5,479.5c0.2,0.1,0.4,0.1,0.6,0.1c0.5,0,0.8-0.2,1.1-0.7l0.5-1.1l-3-7.1h1.2l2.4,5.8l2.3-5.8h1.2
				l-3.5,8.5c-0.4,1-1.1,1.4-2.1,1.4c-0.2,0-0.6,0-0.8-0.1L247.5,479.5z"/>
		</g>
	</g>
</g>
</svg>
